REM DIRINDEX 1\2,1\3\7,1\3\8,1\4\9,1\4\10,1\4\11,1\5\12,1\5\13,1\5\14,1\6\15,1\6\16,1\6\17
REM DIRNAME "folder01","folder02","folder03","folder04","folder05","folder06","folder07","folder08","folder09","folder10","folder11","folder12","folder13","folder14","folder15","folder16","folder17"
TITLE ""
FILE "2Q_t_0371-0387.mp3" MP3
  TRACK 01 AUDIO
    TITLE "7:cjc174_2488"
    INDEX 01 00:00:00
  TRACK 02 AUDIO
    TITLE "0:"
    INDEX 01 00:01:25
  TRACK 03 AUDIO
    TITLE "8:cjc174_2489"
    INDEX 01 00:02:01
  TRACK 04 AUDIO
    TITLE "0:"
    INDEX 01 00:04:12
  TRACK 05 AUDIO
    TITLE "7:cjc174_2490"
    INDEX 01 00:04:55
  TRACK 06 AUDIO
    TITLE "0:"
    INDEX 01 00:05:49
  TRACK 07 AUDIO
    TITLE "8:cjc174_2491"
    INDEX 01 00:06:27
  TRACK 08 AUDIO
    TITLE "0:"
    INDEX 01 00:08:39
  TRACK 09 AUDIO
    TITLE "7:cjc174_2492"
    INDEX 01 00:09:13
  TRACK 10 AUDIO
    TITLE "0:"
    INDEX 01 00:10:36
  TRACK 11 AUDIO
    TITLE "8:cjc174_2493"
    INDEX 01 00:11:10
  TRACK 12 AUDIO
    TITLE "0:"
    INDEX 01 00:13:17
  TRACK 13 AUDIO
    TITLE "7:cjc174_2494"
    INDEX 01 00:13:62
  TRACK 14 AUDIO
    TITLE "0:"
    INDEX 01 00:14:61
  TRACK 15 AUDIO
    TITLE "8:cjc174_2495"
    INDEX 01 00:15:37
  TRACK 16 AUDIO
    TITLE "0:"
    INDEX 01 00:17:34
  TRACK 17 AUDIO
    TITLE "7:cjc174_2496"
    INDEX 01 00:18:04
  TRACK 18 AUDIO
    TITLE "0:"
    INDEX 01 00:19:15
  TRACK 19 AUDIO
    TITLE "8:cjc174_2497"
    INDEX 01 00:19:61
  TRACK 20 AUDIO
    TITLE "0:"
    INDEX 01 00:22:61
  TRACK 21 AUDIO
    TITLE "7:cjc174_2498"
    INDEX 01 00:23:31
  TRACK 22 AUDIO
    TITLE "0:"
    INDEX 01 00:24:36
  TRACK 23 AUDIO
    TITLE "8:cjc174_2499"
    INDEX 01 00:25:10
  TRACK 24 AUDIO
    TITLE "0:"
    INDEX 01 00:27:33
  TRACK 25 AUDIO
    TITLE "7:cjc174_2500"
    INDEX 01 00:28:03
  TRACK 26 AUDIO
    TITLE "0:"
    INDEX 01 00:29:34
  TRACK 27 AUDIO
    TITLE "8:cjc174_2501"
    INDEX 01 00:30:04
  TRACK 28 AUDIO
    TITLE "0:"
    INDEX 01 00:32:18
  TRACK 29 AUDIO
    TITLE "7:cjc174_2502"
    INDEX 01 00:32:63
  TRACK 30 AUDIO
    TITLE "0:"
    INDEX 01 00:34:03
  TRACK 31 AUDIO
    TITLE "8:cjc174_2503"
    INDEX 01 00:34:48
  TRACK 32 AUDIO
    TITLE "0:"
    INDEX 01 00:35:60
  TRACK 33 AUDIO
    TITLE "7:cjc174_2504"
    INDEX 01 00:36:30
  TRACK 34 AUDIO
    TITLE "0:"
    INDEX 01 00:37:33
  TRACK 35 AUDIO
    TITLE "8:cjc174_2505"
    INDEX 01 00:38:09
  TRACK 36 AUDIO
    TITLE "0:"
    INDEX 01 00:39:69
  TRACK 37 AUDIO
    TITLE "7:cjc174_2506"
    INDEX 01 00:40:39
  TRACK 38 AUDIO
    TITLE "0:"
    INDEX 01 00:41:45
  TRACK 39 AUDIO
    TITLE "8:cjc174_2507"
    INDEX 01 00:42:19
  TRACK 40 AUDIO
    TITLE "0:"
    INDEX 01 00:43:24
  TRACK 41 AUDIO
    TITLE "2:cjc174_2508"
    INDEX 01 00:43:67
  TRACK 42 AUDIO
    TITLE "0:"
    INDEX 01 00:45:17
  TRACK 43 AUDIO
    TITLE "7:cjc174_2509"
    INDEX 01 00:45:60
  TRACK 44 AUDIO
    TITLE "0:"
    INDEX 01 00:46:73
  TRACK 45 AUDIO
    TITLE "8:cjc174_2510"
    INDEX 01 00:47:43
  TRACK 46 AUDIO
    TITLE "0:"
    INDEX 01 00:48:56
  TRACK 47 AUDIO
    TITLE "7:cjc174_2511"
    INDEX 01 00:49:26
  TRACK 48 AUDIO
    TITLE "0:"
    INDEX 01 00:50:32
  TRACK 49 AUDIO
    TITLE "8:cjc174_2512"
    INDEX 01 00:51:04
  TRACK 50 AUDIO
    TITLE "0:"
    INDEX 01 00:53:63
  TRACK 51 AUDIO
    TITLE "7:cjc174_2513"
    INDEX 01 00:54:33
  TRACK 52 AUDIO
    TITLE "0:"
    INDEX 01 00:55:72
  TRACK 53 AUDIO
    TITLE "8:cjc174_2514"
    INDEX 01 00:56:46
  TRACK 54 AUDIO
    TITLE "0:"
    INDEX 01 00:57:67
  TRACK 55 AUDIO
    TITLE "7:cjc174_2515"
    INDEX 01 00:58:35
  TRACK 56 AUDIO
    TITLE "0:"
    INDEX 01 00:59:44
  TRACK 57 AUDIO
    TITLE "8:cjc174_2516"
    INDEX 01 01:00:14
  TRACK 58 AUDIO
    TITLE "0:"
    INDEX 01 01:02:31
  TRACK 59 AUDIO
    TITLE "7:cjc174_2517"
    INDEX 01 01:03:01
  TRACK 60 AUDIO
    TITLE "0:"
    INDEX 01 01:04:18
  TRACK 61 AUDIO
    TITLE "8:cjc174_2518"
    INDEX 01 01:04:67
  TRACK 62 AUDIO
    TITLE "0:"
    INDEX 01 01:06:27
  TRACK 63 AUDIO
    TITLE "7:cjc174_2519"
    INDEX 01 01:06:72
  TRACK 64 AUDIO
    TITLE "0:"
    INDEX 01 01:08:06
  TRACK 65 AUDIO
    TITLE "8:cjc174_2520"
    INDEX 01 01:08:53
  TRACK 66 AUDIO
    TITLE "0:"
    INDEX 01 01:09:66
  TRACK 67 AUDIO
    TITLE "7:cjc174_2521"
    INDEX 01 01:10:36
  TRACK 68 AUDIO
    TITLE "0:"
    INDEX 01 01:11:52
  TRACK 69 AUDIO
    TITLE "8:cjc174_2522"
    INDEX 01 01:12:25
  TRACK 70 AUDIO
    TITLE "0:"
    INDEX 01 01:15:08
